<?xml version="1.0" encoding="UTF-8" standalone="no"?>
<!DOCTYPE svg PUBLIC "-//W3C//DTD SVG 1.1//EN"
 "http://www.w3.org/Graphics/SVG/1.1/DTD/svg11.dtd">
<!-- Generated by graphviz version 2.34.0 (20130907.0111)
 -->
<!-- Title: gotest.exe; 18 samples Pages: 1 -->
<svg width="100%" height="100%"
  xmlns="http://www.w3.org/2000/svg" xmlns:xlink="http://www.w3.org/1999/xlink">
<script type="text/ecmascript"><![CDATA[
// SVGPan
// http://www.cyberz.org/blog/2009/12/08/svgpan-a-javascript-svg-panzoomdrag-library/
// Local modification: if(true || ...) below to force panning, never moving.
// Local modification: add clamping to fix bug in handleMouseWheel.

/**
 *  SVGPan library 1.2
 * ====================
 *
 * Given an unique existing element with id "viewport", including the
 * the library into any SVG adds the following capabilities:
 *
 *  - Mouse panning
 *  - Mouse zooming (using the wheel)
 *  - Object dargging
 *
 * Known issues:
 *
 *  - Zooming (while panning) on Safari has still some issues
 *
 * Releases:
 *
 * 1.2, Sat Mar 20 08:42:50 GMT 2010, Zeng Xiaohui
 *	Fixed a bug with browser mouse handler interaction
 *
 * 1.1, Wed Feb  3 17:39:33 GMT 2010, Zeng Xiaohui
 *	Updated the zoom code to support the mouse wheel on Safari/Chrome
 *
 * 1.0, Andrea Leofreddi
 *	First release
 *
 * This code is licensed under the following BSD license:
 *
 * Copyright 2009-2010 Andrea Leofreddi <a.leofreddi@itcharm.com>. All rights reserved.
 *
 * Redistribution and use in source and binary forms, with or without modification, are
 * permitted provided that the following conditions are met:
 *
 *    1. Redistributions of source code must retain the above copyright notice, this list of
 *       conditions and the following disclaimer.
 *
 *    2. Redistributions in binary form must reproduce the above copyright notice, this list
 *       of conditions and the following disclaimer in the documentation and/or other materials
 *       provided with the distribution.
 *
 * THIS SOFTWARE IS PROVIDED BY Andrea Leofreddi ``AS IS'' AND ANY EXPRESS OR IMPLIED
 * WARRANTIES, INCLUDING, BUT NOT LIMITED TO, THE IMPLIED WARRANTIES OF MERCHANTABILITY AND
 * FITNESS FOR A PARTICULAR PURPOSE ARE DISCLAIMED. IN NO EVENT SHALL Andrea Leofreddi OR
 * CONTRIBUTORS BE LIABLE FOR ANY DIRECT, INDIRECT, INCIDENTAL, SPECIAL, EXEMPLARY, OR
 * CONSEQUENTIAL DAMAGES (INCLUDING, BUT NOT LIMITED TO, PROCUREMENT OF SUBSTITUTE GOODS OR
 * SERVICES; LOSS OF USE, DATA, OR PROFITS; OR BUSINESS INTERRUPTION) HOWEVER CAUSED AND ON
 * ANY THEORY OF LIABILITY, WHETHER IN CONTRACT, STRICT LIABILITY, OR TORT (INCLUDING
 * NEGLIGENCE OR OTHERWISE) ARISING IN ANY WAY OUT OF THE USE OF THIS SOFTWARE, EVEN IF
 * ADVISED OF THE POSSIBILITY OF SUCH DAMAGE.
 *
 * The views and conclusions contained in the software and documentation are those of the
 * authors and should not be interpreted as representing official policies, either expressed
 * or implied, of Andrea Leofreddi.
 */

var root = document.documentElement;

var state = 'none', stateTarget, stateOrigin, stateTf;

setupHandlers(root);

/**
 * Register handlers
 */
function setupHandlers(root){
	setAttributes(root, {
		"onmouseup" : "add(evt)",
		"onmousedown" : "handleMouseDown(evt)",
		"onmousemove" : "handleMouseMove(evt)",
		"onmouseup" : "handleMouseUp(evt)",
		//"onmouseout" : "handleMouseUp(evt)", // Decomment this to stop the pan functionality when dragging out of the SVG element
	});

	if(navigator.userAgent.toLowerCase().indexOf('webkit') >= 0)
		window.addEventListener('mousewheel', handleMouseWheel, false); // Chrome/Safari
	else
		window.addEventListener('DOMMouseScroll', handleMouseWheel, false); // Others

	var g = svgDoc.getElementById("svg");
	g.width = "100%";
	g.height = "100%";
}

/**
 * Instance an SVGPoint object with given event coordinates.
 */
function getEventPoint(evt) {
	var p = root.createSVGPoint();

	p.x = evt.clientX;
	p.y = evt.clientY;

	return p;
}

/**
 * Sets the current transform matrix of an element.
 */
function setCTM(element, matrix) {
	var s = "matrix(" + matrix.a + "," + matrix.b + "," + matrix.c + "," + matrix.d + "," + matrix.e + "," + matrix.f + ")";

	element.setAttribute("transform", s);
}

/**
 * Dumps a matrix to a string (useful for debug).
 */
function dumpMatrix(matrix) {
	var s = "[ " + matrix.a + ", " + matrix.c + ", " + matrix.e + "\n  " + matrix.b + ", " + matrix.d + ", " + matrix.f + "\n  0, 0, 1 ]";

	return s;
}

/**
 * Sets attributes of an element.
 */
function setAttributes(element, attributes){
	for (i in attributes)
		element.setAttributeNS(null, i, attributes[i]);
}

/**
 * Handle mouse move event.
 */
function handleMouseWheel(evt) {
	if(evt.preventDefault)
		evt.preventDefault();

	evt.returnValue = false;

	var svgDoc = evt.target.ownerDocument;

	var delta;

	if(evt.wheelDelta)
		delta = evt.wheelDelta / 3600; // Chrome/Safari
	else
		delta = evt.detail / -90; // Mozilla

	var z = 1 + delta; // Zoom factor: 0.9/1.1

	// Clamp to reasonable values.
	// The 0.1 check is important because
	// a very large scroll can turn into a
	// negative z, which rotates the image 180 degrees.
	if(z < 0.1)
		z = 0.1;
	if(z > 10.0)
		z = 10.0;

	var g = svgDoc.getElementById("viewport");

	var p = getEventPoint(evt);

	p = p.matrixTransform(g.getCTM().inverse());

	// Compute new scale matrix in current mouse position
	var k = root.createSVGMatrix().translate(p.x, p.y).scale(z).translate(-p.x, -p.y);

        setCTM(g, g.getCTM().multiply(k));

	stateTf = stateTf.multiply(k.inverse());
}

/**
 * Handle mouse move event.
 */
function handleMouseMove(evt) {
	if(evt.preventDefault)
		evt.preventDefault();

	evt.returnValue = false;

	var svgDoc = evt.target.ownerDocument;

	var g = svgDoc.getElementById("viewport");

	if(state == 'pan') {
		// Pan mode
		var p = getEventPoint(evt).matrixTransform(stateTf);

		setCTM(g, stateTf.inverse().translate(p.x - stateOrigin.x, p.y - stateOrigin.y));
	} else if(state == 'move') {
		// Move mode
		var p = getEventPoint(evt).matrixTransform(g.getCTM().inverse());

		setCTM(stateTarget, root.createSVGMatrix().translate(p.x - stateOrigin.x, p.y - stateOrigin.y).multiply(g.getCTM().inverse()).multiply(stateTarget.getCTM()));

		stateOrigin = p;
	}
}

/**
 * Handle click event.
 */
function handleMouseDown(evt) {
	if(evt.preventDefault)
		evt.preventDefault();

	evt.returnValue = false;

	var svgDoc = evt.target.ownerDocument;

	var g = svgDoc.getElementById("viewport");

	if(true || evt.target.tagName == "svg") {
		// Pan mode
		state = 'pan';

		stateTf = g.getCTM().inverse();

		stateOrigin = getEventPoint(evt).matrixTransform(stateTf);
	} else {
		// Move mode
		state = 'move';

		stateTarget = evt.target;

		stateTf = g.getCTM().inverse();

		stateOrigin = getEventPoint(evt).matrixTransform(stateTf);
	}
}

/**
 * Handle mouse button release event.
 */
function handleMouseUp(evt) {
	if(evt.preventDefault)
		evt.preventDefault();

	evt.returnValue = false;

	var svgDoc = evt.target.ownerDocument;

	if(state == 'pan' || state == 'move') {
		// Quit pan mode
		state = '';
	}
}

]]></script>
<g id="viewport" transform="translate(0,0)">
<g id="viewport" class="graph" transform="scale(1 1) rotate(0) translate(4 1810)">
<title>gotest.exe; 18 samples</title>
<polygon fill="white" stroke="white" points="-4,4 -4,-1810 1028,-1810 1028,4 -4,4"/>
<!-- Legend -->
<g id="node1" class="node"><title>Legend</title>
<text text-anchor="start" x="8" y="-1782.8" font-family="Times New Roman,serif" font-size="24.00">gotest.exe</text>
<text text-anchor="start" x="8" y="-1756.8" font-family="Times New Roman,serif" font-size="24.00">Total samples: 18</text>
<text text-anchor="start" x="8" y="-1730.8" font-family="Times New Roman,serif" font-size="24.00">Focusing on: 18</text>
<text text-anchor="start" x="8" y="-1704.8" font-family="Times New Roman,serif" font-size="24.00">Dropped nodes with &lt;= 0 abs(samples)</text>
<text text-anchor="start" x="8" y="-1678.8" font-family="Times New Roman,serif" font-size="24.00">Dropped edges with &lt;= 0 samples</text>
</g>
<!-- N1 -->
<g id="node2" class="node"><title>N1</title>
<polygon fill="none" stroke="black" points="478.25,-1527.5 407.75,-1527.5 407.75,-1492.5 478.25,-1492.5 478.25,-1527.5"/>
<text text-anchor="middle" x="443" y="-1517.1" font-family="Times New Roman,serif" font-size="8.00">main.main</text>
<text text-anchor="end" x="470.5" y="-1508.1" font-family="Times New Roman,serif" font-size="8.00">0 (0.0%)</text>
<text text-anchor="end" x="470.5" y="-1499.1" font-family="Times New Roman,serif" font-size="8.00">of 18 (100.0%)</text>
</g>
<!-- N4 -->
<g id="node5" class="node"><title>N4</title>
<polygon fill="none" stroke="black" points="593,-1440 293,-1440 293,-1366 593,-1366 593,-1440"/>
<text text-anchor="middle" x="443" y="-1420.16" font-family="Times New Roman,serif" font-size="19.80">main.benchmarkFastRWerGetValue</text>
<text text-anchor="end" x="585" y="-1398.16" font-family="Times New Roman,serif" font-size="19.80">1 (5.6%)</text>
<text text-anchor="end" x="585" y="-1376.16" font-family="Times New Roman,serif" font-size="19.80">of 17 (94.4%)</text>
</g>
<!-- N1&#45;&gt;N4 -->
<g id="edge14" class="edge"><title>N1&#45;&gt;N4</title>
<path fill="none" stroke="black" stroke-width="2" d="M443,-1492.13C443,-1480.83 443,-1465.35 443,-1450.52"/>
<polygon fill="black" stroke="black" points="446.5,-1450.41 443,-1440.41 439.5,-1450.41 446.5,-1450.41"/>
<text text-anchor="middle" x="450" y="-1462.3" font-family="Times New Roman,serif" font-size="14.00">17</text>
</g>
<!-- N22 -->
<g id="node23" class="node"><title>N22</title>
<polygon fill="none" stroke="black" points="745.25,-1420.5 624.75,-1420.5 624.75,-1385.5 745.25,-1385.5 745.25,-1420.5"/>
<text text-anchor="middle" x="685" y="-1410.1" font-family="Times New Roman,serif" font-size="8.00">main.benchmarkFastRWerGet</text>
<text text-anchor="end" x="737.5" y="-1401.1" font-family="Times New Roman,serif" font-size="8.00">0 (0.0%)</text>
<text text-anchor="end" x="737.5" y="-1392.1" font-family="Times New Roman,serif" font-size="8.00">of 1 (5.6%)</text>
</g>
<!-- N1&#45;&gt;N22 -->
<g id="edge3" class="edge"><title>N1&#45;&gt;N22</title>
<path fill="none" stroke="black" d="M478.448,-1493.62C520.454,-1475.39 590.622,-1444.95 637.35,-1424.67"/>
<polygon fill="black" stroke="black" points="638.877,-1427.83 646.658,-1420.64 636.091,-1421.41 638.877,-1427.83"/>
<text text-anchor="middle" x="559.5" y="-1462.3" font-family="Times New Roman,serif" font-size="14.00">1</text>
</g>
<!-- N2 -->
<g id="node3" class="node"><title>N2</title>
<polygon fill="none" stroke="black" points="481.25,-1754.5 404.75,-1754.5 404.75,-1719.5 481.25,-1719.5 481.25,-1754.5"/>
<text text-anchor="middle" x="443" y="-1744.1" font-family="Times New Roman,serif" font-size="8.00">runtime.gosched0</text>
<text text-anchor="end" x="473.5" y="-1735.1" font-family="Times New Roman,serif" font-size="8.00">0 (0.0%)</text>
<text text-anchor="end" x="473.5" y="-1726.1" font-family="Times New Roman,serif" font-size="8.00">of 18 (100.0%)</text>
</g>
<!-- N3 -->
<g id="node4" class="node"><title>N3</title>
<polygon fill="none" stroke="black" points="478.25,-1615.5 407.75,-1615.5 407.75,-1580.5 478.25,-1580.5 478.25,-1615.5"/>
<text text-anchor="middle" x="443" y="-1605.1" font-family="Times New Roman,serif" font-size="8.00">runtime.main</text>
<text text-anchor="end" x="470.5" y="-1596.1" font-family="Times New Roman,serif" font-size="8.00">0 (0.0%)</text>
<text text-anchor="end" x="470.5" y="-1587.1" font-family="Times New Roman,serif" font-size="8.00">of 18 (100.0%)</text>
</g>
<!-- N2&#45;&gt;N3 -->
<g id="edge25" class="edge"><title>N2&#45;&gt;N3</title>
<path fill="none" stroke="black" stroke-width="2" d="M443,-1719.47C443,-1696.23 443,-1653.61 443,-1625.8"/>
<polygon fill="black" stroke="black" points="446.5,-1625.58 443,-1615.58 439.5,-1625.58 446.5,-1625.58"/>
<text text-anchor="middle" x="450" y="-1638.3" font-family="Times New Roman,serif" font-size="14.00">18</text>
</g>
<!-- N3&#45;&gt;N1 -->
<g id="edge2" class="edge"><title>N3&#45;&gt;N1</title>
<path fill="none" stroke="black" stroke-width="2" d="M443,-1580.42C443,-1568.28 443,-1551.56 443,-1537.58"/>
<polygon fill="black" stroke="black" points="446.5,-1537.53 443,-1527.53 439.5,-1537.53 446.5,-1537.53"/>
<text text-anchor="middle" x="450" y="-1550.3" font-family="Times New Roman,serif" font-size="14.00">18</text>
</g>
<!-- N5 -->
<g id="node6" class="node"><title>N5</title>
<polygon fill="none" stroke="black" points="555.25,-1314 330.75,-1314 330.75,-1240 555.25,-1240 555.25,-1314"/>
<text text-anchor="middle" x="443" y="-1294.16" font-family="Times New Roman,serif" font-size="19.80">main.(*FastRW).GetValue</text>
<text text-anchor="end" x="547.5" y="-1272.16" font-family="Times New Roman,serif" font-size="19.80">1 (5.6%)</text>
<text text-anchor="end" x="547.5" y="-1250.16" font-family="Times New Roman,serif" font-size="19.80">of 14 (77.8%)</text>
</g>
<!-- N4&#45;&gt;N5 -->
<g id="edge24" class="edge"><title>N4&#45;&gt;N5</title>
<path fill="none" stroke="black" stroke-width="2" d="M443,-1365.8C443,-1352.81 443,-1337.99 443,-1324.26"/>
<polygon fill="black" stroke="black" points="446.5,-1324.03 443,-1314.03 439.5,-1324.03 446.5,-1324.03"/>
<text text-anchor="middle" x="450" y="-1336.3" font-family="Times New Roman,serif" font-size="14.00">14</text>
</g>
<!-- N17 -->
<g id="node18" class="node"><title>N17</title>
<polygon fill="none" stroke="black" points="636,-1294.5 574,-1294.5 574,-1259.5 636,-1259.5 636,-1294.5"/>
<text text-anchor="middle" x="605" y="-1284.1" font-family="Times New Roman,serif" font-size="8.00">fmt.Println</text>
<text text-anchor="end" x="628" y="-1275.1" font-family="Times New Roman,serif" font-size="8.00">0 (0.0%)</text>
<text text-anchor="end" x="628" y="-1266.1" font-family="Times New Roman,serif" font-size="8.00">of 2 (11.1%)</text>
</g>
<!-- N4&#45;&gt;N17 -->
<g id="edge6" class="edge"><title>N4&#45;&gt;N17</title>
<path fill="none" stroke="black" d="M494.703,-1365.98C516.441,-1350.43 541.789,-1331.77 564,-1314 568.834,-1310.13 573.871,-1305.9 578.693,-1301.73"/>
<polygon fill="black" stroke="black" points="581.318,-1304.08 586.531,-1294.86 576.704,-1298.82 581.318,-1304.08"/>
<text text-anchor="middle" x="541.5" y="-1336.3" font-family="Times New Roman,serif" font-size="14.00">2</text>
</g>
<!-- N6 -->
<g id="node7" class="node"><title>N6</title>
<polygon fill="none" stroke="black" points="508,-1188 378,-1188 378,-1114 508,-1114 508,-1188"/>
<text text-anchor="middle" x="443" y="-1168.16" font-family="Times New Roman,serif" font-size="19.80">main.getValue</text>
<text text-anchor="end" x="500" y="-1146.16" font-family="Times New Roman,serif" font-size="19.80">1 (5.6%)</text>
<text text-anchor="end" x="500" y="-1124.16" font-family="Times New Roman,serif" font-size="19.80">of 13 (72.2%)</text>
</g>
<!-- N5&#45;&gt;N6 -->
<g id="edge20" class="edge"><title>N5&#45;&gt;N6</title>
<path fill="none" stroke="black" stroke-width="2" d="M443,-1239.8C443,-1226.81 443,-1211.99 443,-1198.26"/>
<polygon fill="black" stroke="black" points="446.5,-1198.03 443,-1188.03 439.5,-1198.03 446.5,-1198.03"/>
<text text-anchor="middle" x="450" y="-1210.3" font-family="Times New Roman,serif" font-size="14.00">13</text>
</g>
<!-- N7 -->
<g id="node8" class="node"><title>N7</title>
<polygon fill="none" stroke="black" points="537,-1061.5 349,-1061.5 349,-972.5 537,-972.5 537,-1061.5"/>
<text text-anchor="middle" x="443" y="-1037.74" font-family="Times New Roman,serif" font-size="24.70">runtime.convT2E</text>
<text text-anchor="end" x="529" y="-1010.74" font-family="Times New Roman,serif" font-size="24.70">2 (11.1%)</text>
<text text-anchor="end" x="529" y="-983.74" font-family="Times New Roman,serif" font-size="24.70">of 10 (55.6%)</text>
</g>
<!-- N6&#45;&gt;N7 -->
<g id="edge22" class="edge"><title>N6&#45;&gt;N7</title>
<path fill="none" stroke="black" stroke-width="2" d="M443,-1113.93C443,-1100.91 443,-1085.91 443,-1071.71"/>
<polygon fill="black" stroke="black" points="446.5,-1071.54 443,-1061.54 439.5,-1071.54 446.5,-1071.54"/>
<text text-anchor="middle" x="450" y="-1084.3" font-family="Times New Roman,serif" font-size="14.00">10</text>
</g>
<!-- N18 -->
<g id="node19" class="node"><title>N18</title>
<polygon fill="none" stroke="black" points="637,-1034.5 567,-1034.5 567,-999.5 637,-999.5 637,-1034.5"/>
<text text-anchor="middle" x="602" y="-1024.1" font-family="Times New Roman,serif" font-size="8.00">runtime.ifaceeq</text>
<text text-anchor="end" x="629" y="-1015.1" font-family="Times New Roman,serif" font-size="8.00">0 (0.0%)</text>
<text text-anchor="end" x="629" y="-1006.1" font-family="Times New Roman,serif" font-size="8.00">of 2 (11.1%)</text>
</g>
<!-- N6&#45;&gt;N18 -->
<g id="edge15" class="edge"><title>N6&#45;&gt;N18</title>
<path fill="none" stroke="black" d="M486.447,-1113.93C514.369,-1090.75 549.819,-1061.32 574.044,-1041.21"/>
<polygon fill="black" stroke="black" points="576.344,-1043.85 581.802,-1034.77 571.872,-1038.46 576.344,-1043.85"/>
<text text-anchor="middle" x="530.5" y="-1084.3" font-family="Times New Roman,serif" font-size="14.00">2</text>
</g>
<!-- N8 -->
<g id="node9" class="node"><title>N8</title>
<polygon fill="none" stroke="black" points="501.25,-920 384.75,-920 384.75,-846 501.25,-846 501.25,-920"/>
<text text-anchor="middle" x="443" y="-900.16" font-family="Times New Roman,serif" font-size="19.80">copyin</text>
<text text-anchor="end" x="493.5" y="-878.16" font-family="Times New Roman,serif" font-size="19.80">1 (5.6%)</text>
<text text-anchor="end" x="493.5" y="-856.16" font-family="Times New Roman,serif" font-size="19.80">of 8 (44.4%)</text>
</g>
<!-- N7&#45;&gt;N8 -->
<g id="edge7" class="edge"><title>N7&#45;&gt;N8</title>
<path fill="none" stroke="black" stroke-width="2" d="M443,-972.412C443,-958.888 443,-943.939 443,-930.241"/>
<polygon fill="black" stroke="black" points="446.5,-930.055 443,-920.055 439.5,-930.055 446.5,-930.055"/>
<text text-anchor="middle" x="446.5" y="-942.3" font-family="Times New Roman,serif" font-size="14.00">8</text>
</g>
<!-- N9 -->
<g id="node10" class="node"><title>N9</title>
<polygon fill="none" stroke="black" points="443,-785.5 381,-785.5 381,-750.5 443,-750.5 443,-785.5"/>
<text text-anchor="middle" x="412" y="-775.1" font-family="Times New Roman,serif" font-size="8.00">runtime.mal</text>
<text text-anchor="end" x="435" y="-766.1" font-family="Times New Roman,serif" font-size="8.00">0 (0.0%)</text>
<text text-anchor="end" x="435" y="-757.1" font-family="Times New Roman,serif" font-size="8.00">of 5 (27.8%)</text>
</g>
<!-- N8&#45;&gt;N9 -->
<g id="edge9" class="edge"><title>N8&#45;&gt;N9</title>
<path fill="none" stroke="black" stroke-width="1.66667" d="M433.106,-845.935C428.585,-829.457 423.33,-810.298 419.193,-795.221"/>
<polygon fill="black" stroke="black" points="422.553,-794.237 416.532,-785.519 415.802,-796.089 422.553,-794.237"/>
<text text-anchor="middle" x="430.5" y="-816.3" font-family="Times New Roman,serif" font-size="14.00">5</text>
</g>
<!-- N24 -->
<g id="node25" class="node"><title>N24</title>
<polygon fill="none" stroke="black" points="620.25,-794 461.75,-794 461.75,-742 620.25,-742 620.25,-794"/>
<text text-anchor="middle" x="541" y="-774.16" font-family="Times New Roman,serif" font-size="19.80">runtime.memcopy</text>
<text text-anchor="end" x="612.5" y="-752.16" font-family="Times New Roman,serif" font-size="19.80">1 (5.6%)</text>
</g>
<!-- N8&#45;&gt;N24 -->
<g id="edge1" class="edge"><title>N8&#45;&gt;N24</title>
<path fill="none" stroke="black" d="M474.277,-845.935C486.546,-831.789 500.527,-815.668 512.511,-801.849"/>
<polygon fill="black" stroke="black" points="515.401,-803.859 519.309,-794.012 510.113,-799.273 515.401,-803.859"/>
<text text-anchor="middle" x="506.5" y="-816.3" font-family="Times New Roman,serif" font-size="14.00">1</text>
</g>
<!-- N25 -->
<g id="node26" class="node"><title>N25</title>
<polygon fill="none" stroke="black" points="827,-794 639,-794 639,-742 827,-742 827,-794"/>
<text text-anchor="middle" x="733" y="-774.16" font-family="Times New Roman,serif" font-size="19.80">runtime.memcopy128</text>
<text text-anchor="end" x="819" y="-752.16" font-family="Times New Roman,serif" font-size="19.80">1 (5.6%)</text>
</g>
<!-- N8&#45;&gt;N25 -->
<g id="edge10" class="edge"><title>N8&#45;&gt;N25</title>
<path fill="none" stroke="black" d="M501.326,-850.394C504.576,-848.861 507.815,-847.386 511,-846 553.076,-827.693 601.036,-810.608 641.586,-797.206"/>
<polygon fill="black" stroke="black" points="642.779,-800.498 651.189,-794.055 640.596,-793.847 642.779,-800.498"/>
<text text-anchor="middle" x="598.5" y="-816.3" font-family="Times New Roman,serif" font-size="14.00">1</text>
</g>
<!-- N10 -->
<g id="node11" class="node"><title>N10</title>
<polygon fill="none" stroke="black" points="531.25,-689.5 292.75,-689.5 292.75,-576.5 531.25,-576.5 531.25,-689.5"/>
<text text-anchor="middle" x="412" y="-660.22" font-family="Times New Roman,serif" font-size="31.60">runtime.mallocgc</text>
<text text-anchor="end" x="523.5" y="-625.22" font-family="Times New Roman,serif" font-size="31.60">4 (22.2%)</text>
<text text-anchor="end" x="523.5" y="-590.22" font-family="Times New Roman,serif" font-size="31.60">of 5 (27.8%)</text>
</g>
<!-- N9&#45;&gt;N10 -->
<g id="edge26" class="edge"><title>N9&#45;&gt;N10</title>
<path fill="none" stroke="black" stroke-width="1.66667" d="M412,-750.424C412,-737.498 412,-718.64 412,-699.851"/>
<polygon fill="black" stroke="black" points="415.5,-699.762 412,-689.762 408.5,-699.762 415.5,-699.762"/>
<text text-anchor="middle" x="415.5" y="-712.3" font-family="Times New Roman,serif" font-size="14.00">5</text>
</g>
<!-- N23 -->
<g id="node24" class="node"><title>N23</title>
<polygon fill="none" stroke="black" points="508,-524 316,-524 316,-472 508,-472 508,-524"/>
<text text-anchor="middle" x="412" y="-504.16" font-family="Times New Roman,serif" font-size="19.80">runtime.markallocated</text>
<text text-anchor="end" x="500" y="-482.16" font-family="Times New Roman,serif" font-size="19.80">1 (5.6%)</text>
</g>
<!-- N10&#45;&gt;N23 -->
<g id="edge4" class="edge"><title>N10&#45;&gt;N23</title>
<path fill="none" stroke="black" d="M412,-576.367C412,-562.13 412,-547.211 412,-534.314"/>
<polygon fill="black" stroke="black" points="415.5,-534.016 412,-524.016 408.5,-534.016 415.5,-534.016"/>
<text text-anchor="middle" x="415.5" y="-546.3" font-family="Times New Roman,serif" font-size="14.00">1</text>
</g>
<!-- N11 -->
<g id="node12" class="node"><title>N11</title>
<polygon fill="none" stroke="black" points="935.25,-650.5 848.75,-650.5 848.75,-615.5 935.25,-615.5 935.25,-650.5"/>
<text text-anchor="middle" x="892" y="-640.1" font-family="Times New Roman,serif" font-size="8.00">fmt.(*fmt).fmt_g32</text>
<text text-anchor="end" x="927.5" y="-631.1" font-family="Times New Roman,serif" font-size="8.00">0 (0.0%)</text>
<text text-anchor="end" x="927.5" y="-622.1" font-family="Times New Roman,serif" font-size="8.00">of 2 (11.1%)</text>
</g>
<!-- N12 -->
<g id="node13" class="node"><title>N12</title>
<polygon fill="none" stroke="black" points="941.25,-515.5 842.75,-515.5 842.75,-480.5 941.25,-480.5 941.25,-515.5"/>
<text text-anchor="middle" x="892" y="-505.1" font-family="Times New Roman,serif" font-size="8.00">fmt.(*fmt).formatFloat</text>
<text text-anchor="end" x="933.5" y="-496.1" font-family="Times New Roman,serif" font-size="8.00">0 (0.0%)</text>
<text text-anchor="end" x="933.5" y="-487.1" font-family="Times New Roman,serif" font-size="8.00">of 2 (11.1%)</text>
</g>
<!-- N11&#45;&gt;N12 -->
<g id="edge19" class="edge"><title>N11&#45;&gt;N12</title>
<path fill="none" stroke="black" d="M892,-615.424C892,-593.024 892,-552.814 892,-526.016"/>
<polygon fill="black" stroke="black" points="895.5,-525.784 892,-515.785 888.5,-525.785 895.5,-525.784"/>
<text text-anchor="middle" x="895.5" y="-546.3" font-family="Times New Roman,serif" font-size="14.00">2</text>
</g>
<!-- N20 -->
<g id="node21" class="node"><title>N20</title>
<polygon fill="none" stroke="black" points="937,-419.5 847,-419.5 847,-384.5 937,-384.5 937,-419.5"/>
<text text-anchor="middle" x="892" y="-409.1" font-family="Times New Roman,serif" font-size="8.00">strconv.AppendFloat</text>
<text text-anchor="end" x="929" y="-400.1" font-family="Times New Roman,serif" font-size="8.00">0 (0.0%)</text>
<text text-anchor="end" x="929" y="-391.1" font-family="Times New Roman,serif" font-size="8.00">of 2 (11.1%)</text>
</g>
<!-- N12&#45;&gt;N20 -->
<g id="edge13" class="edge"><title>N12&#45;&gt;N20</title>
<path fill="none" stroke="black" d="M892,-480.195C892,-466.293 892,-446.279 892,-430.114"/>
<polygon fill="black" stroke="black" points="895.5,-429.66 892,-419.66 888.5,-429.66 895.5,-429.66"/>
<text text-anchor="middle" x="895.5" y="-442.3" font-family="Times New Roman,serif" font-size="14.00">2</text>
</g>
<!-- N13 -->
<g id="node14" class="node"><title>N13</title>
<polygon fill="none" stroke="black" points="784,-1034.5 704,-1034.5 704,-999.5 784,-999.5 784,-1034.5"/>
<text text-anchor="middle" x="744" y="-1024.1" font-family="Times New Roman,serif" font-size="8.00">fmt.(*pp).doPrint</text>
<text text-anchor="end" x="776" y="-1015.1" font-family="Times New Roman,serif" font-size="8.00">0 (0.0%)</text>
<text text-anchor="end" x="776" y="-1006.1" font-family="Times New Roman,serif" font-size="8.00">of 2 (11.1%)</text>
</g>
<!-- N15 -->
<g id="node16" class="node"><title>N15</title>
<polygon fill="none" stroke="black" points="830.25,-900.5 747.75,-900.5 747.75,-865.5 830.25,-865.5 830.25,-900.5"/>
<text text-anchor="middle" x="789" y="-890.1" font-family="Times New Roman,serif" font-size="8.00">fmt.(*pp).printArg</text>
<text text-anchor="end" x="822.5" y="-881.1" font-family="Times New Roman,serif" font-size="8.00">0 (0.0%)</text>
<text text-anchor="end" x="822.5" y="-872.1" font-family="Times New Roman,serif" font-size="8.00">of 2 (11.1%)</text>
</g>
<!-- N13&#45;&gt;N15 -->
<g id="edge21" class="edge"><title>N13&#45;&gt;N15</title>
<path fill="none" stroke="black" d="M749.699,-999.282C757.341,-976.867 770.989,-936.831 780.02,-910.342"/>
<polygon fill="black" stroke="black" points="783.433,-911.177 783.347,-900.582 776.807,-908.918 783.433,-911.177"/>
<text text-anchor="middle" x="773.5" y="-942.3" font-family="Times New Roman,serif" font-size="14.00">2</text>
</g>
<!-- N14 -->
<g id="node15" class="node"><title>N14</title>
<polygon fill="none" stroke="black" points="938.25,-785.5 845.75,-785.5 845.75,-750.5 938.25,-750.5 938.25,-785.5"/>
<text text-anchor="middle" x="892" y="-775.1" font-family="Times New Roman,serif" font-size="8.00">fmt.(*pp).fmtFloat32</text>
<text text-anchor="end" x="930.5" y="-766.1" font-family="Times New Roman,serif" font-size="8.00">0 (0.0%)</text>
<text text-anchor="end" x="930.5" y="-757.1" font-family="Times New Roman,serif" font-size="8.00">of 2 (11.1%)</text>
</g>
<!-- N14&#45;&gt;N11 -->
<g id="edge18" class="edge"><title>N14&#45;&gt;N11</title>
<path fill="none" stroke="black" d="M892,-750.424C892,-728.024 892,-687.814 892,-661.016"/>
<polygon fill="black" stroke="black" points="895.5,-660.784 892,-650.785 888.5,-660.785 895.5,-660.784"/>
<text text-anchor="middle" x="895.5" y="-712.3" font-family="Times New Roman,serif" font-size="14.00">2</text>
</g>
<!-- N15&#45;&gt;N14 -->
<g id="edge12" class="edge"><title>N15&#45;&gt;N14</title>
<path fill="none" stroke="black" d="M804.198,-865.326C821.542,-846.299 850.062,-815.009 869.872,-793.276"/>
<polygon fill="black" stroke="black" points="872.59,-795.49 876.74,-785.742 867.416,-790.775 872.59,-795.49"/>
<text text-anchor="middle" x="855.5" y="-816.3" font-family="Times New Roman,serif" font-size="14.00">2</text>
</g>
<!-- N16 -->
<g id="node17" class="node"><title>N16</title>
<polygon fill="none" stroke="black" points="647,-1168.5 585,-1168.5 585,-1133.5 647,-1133.5 647,-1168.5"/>
<text text-anchor="middle" x="616" y="-1158.1" font-family="Times New Roman,serif" font-size="8.00">fmt.Fprintln</text>
<text text-anchor="end" x="639" y="-1149.1" font-family="Times New Roman,serif" font-size="8.00">0 (0.0%)</text>
<text text-anchor="end" x="639" y="-1140.1" font-family="Times New Roman,serif" font-size="8.00">of 2 (11.1%)</text>
</g>
<!-- N16&#45;&gt;N13 -->
<g id="edge11" class="edge"><title>N16&#45;&gt;N13</title>
<path fill="none" stroke="black" d="M632.211,-1133.28C654.621,-1110.17 695.191,-1068.33 720.804,-1041.92"/>
<polygon fill="black" stroke="black" points="723.472,-1044.2 727.92,-1034.58 718.446,-1039.32 723.472,-1044.2"/>
<text text-anchor="middle" x="686.5" y="-1084.3" font-family="Times New Roman,serif" font-size="14.00">2</text>
</g>
<!-- N17&#45;&gt;N16 -->
<g id="edge17" class="edge"><title>N17&#45;&gt;N16</title>
<path fill="none" stroke="black" d="M606.484,-1259.28C608.312,-1238.66 611.444,-1203.36 613.613,-1178.91"/>
<polygon fill="black" stroke="black" points="617.107,-1179.12 614.505,-1168.85 610.135,-1178.51 617.107,-1179.12"/>
<text text-anchor="middle" x="614.5" y="-1210.3" font-family="Times New Roman,serif" font-size="14.00">2</text>
</g>
<!-- N19 -->
<g id="node20" class="node"><title>N19</title>
<polygon fill="none" stroke="black" points="710.25,-914 519.75,-914 519.75,-852 710.25,-852 710.25,-914"/>
<text text-anchor="middle" x="615" y="-890.24" font-family="Times New Roman,serif" font-size="24.70">runtime.ifaceeq_c</text>
<text text-anchor="end" x="702.5" y="-863.24" font-family="Times New Roman,serif" font-size="24.70">2 (11.1%)</text>
</g>
<!-- N18&#45;&gt;N19 -->
<g id="edge27" class="edge"><title>N18&#45;&gt;N19</title>
<path fill="none" stroke="black" d="M603.646,-999.282C605.496,-980.502 608.564,-949.355 611.044,-924.167"/>
<polygon fill="black" stroke="black" points="614.534,-924.439 612.031,-914.144 607.568,-923.753 614.534,-924.439"/>
<text text-anchor="middle" x="612.5" y="-942.3" font-family="Times New Roman,serif" font-size="14.00">2</text>
</g>
<!-- N21 -->
<g id="node22" class="node"><title>N21</title>
<polygon fill="none" stroke="black" points="935,-331.5 849,-331.5 849,-296.5 935,-296.5 935,-331.5"/>
<text text-anchor="middle" x="892" y="-321.1" font-family="Times New Roman,serif" font-size="8.00">strconv.genericFtoa</text>
<text text-anchor="end" x="927" y="-312.1" font-family="Times New Roman,serif" font-size="8.00">0 (0.0%)</text>
<text text-anchor="end" x="927" y="-303.1" font-family="Times New Roman,serif" font-size="8.00">of 2 (11.1%)</text>
</g>
<!-- N20&#45;&gt;N21 -->
<g id="edge5" class="edge"><title>N20&#45;&gt;N21</title>
<path fill="none" stroke="black" d="M892,-384.418C892,-372.283 892,-355.564 892,-341.575"/>
<polygon fill="black" stroke="black" points="895.5,-341.531 892,-331.531 888.5,-341.531 895.5,-341.531"/>
<text text-anchor="middle" x="895.5" y="-354.3" font-family="Times New Roman,serif" font-size="14.00">2</text>
</g>
<!-- N26 -->
<g id="node27" class="node"><title>N26</title>
<polygon fill="none" stroke="black" points="831,-235.5 687,-235.5 687,-200.5 831,-200.5 831,-235.5"/>
<text text-anchor="middle" x="759" y="-225.1" font-family="Times New Roman,serif" font-size="8.00">strconv.(*extFloat).ShortestDecimal</text>
<text text-anchor="end" x="823" y="-216.1" font-family="Times New Roman,serif" font-size="8.00">0 (0.0%)</text>
<text text-anchor="end" x="823" y="-207.1" font-family="Times New Roman,serif" font-size="8.00">of 1 (5.6%)</text>
</g>
<!-- N21&#45;&gt;N26 -->
<g id="edge29" class="edge"><title>N21&#45;&gt;N26</title>
<path fill="none" stroke="black" d="M868.528,-296.411C847.009,-281.202 814.955,-258.547 791.077,-241.671"/>
<polygon fill="black" stroke="black" points="792.871,-238.653 782.684,-235.739 788.831,-244.369 792.871,-238.653"/>
<text text-anchor="middle" x="844.5" y="-266.3" font-family="Times New Roman,serif" font-size="14.00">1</text>
</g>
<!-- N28 -->
<g id="node29" class="node"><title>N28</title>
<polygon fill="none" stroke="black" points="1024.25,-244 849.75,-244 849.75,-192 1024.25,-192 1024.25,-244"/>
<text text-anchor="middle" x="937" y="-224.16" font-family="Times New Roman,serif" font-size="19.80">strconv.formatDigits</text>
<text text-anchor="end" x="1016.5" y="-202.16" font-family="Times New Roman,serif" font-size="19.80">1 (5.6%)</text>
</g>
<!-- N21&#45;&gt;N28 -->
<g id="edge16" class="edge"><title>N21&#45;&gt;N28</title>
<path fill="none" stroke="black" d="M900.045,-296.195C905.727,-284.325 913.542,-268 920.523,-253.419"/>
<polygon fill="black" stroke="black" points="923.797,-254.685 924.958,-244.154 917.483,-251.662 923.797,-254.685"/>
<text text-anchor="middle" x="918.5" y="-266.3" font-family="Times New Roman,serif" font-size="14.00">1</text>
</g>
<!-- N30 -->
<g id="node31" class="node"><title>N30</title>
<polygon fill="none" stroke="black" points="740,-1303 654,-1303 654,-1251 740,-1251 740,-1303"/>
<text text-anchor="middle" x="697" y="-1283.16" font-family="Times New Roman,serif" font-size="19.80">text</text>
<text text-anchor="end" x="732" y="-1261.16" font-family="Times New Roman,serif" font-size="19.80">1 (5.6%)</text>
</g>
<!-- N22&#45;&gt;N30 -->
<g id="edge8" class="edge"><title>N22&#45;&gt;N30</title>
<path fill="none" stroke="black" d="M686.618,-1385.28C688.402,-1366.85 691.32,-1336.69 693.61,-1313.03"/>
<polygon fill="black" stroke="black" points="697.099,-1313.31 694.579,-1303.02 690.132,-1312.63 697.099,-1313.31"/>
<text text-anchor="middle" x="694.5" y="-1336.3" font-family="Times New Roman,serif" font-size="14.00">1</text>
</g>
<!-- N29 -->
<g id="node30" class="node"><title>N29</title>
<polygon fill="none" stroke="black" points="805.25,-139.5 712.75,-139.5 712.75,-104.5 805.25,-104.5 805.25,-139.5"/>
<text text-anchor="middle" x="759" y="-129.1" font-family="Times New Roman,serif" font-size="8.00">strconv.frexp10Many</text>
<text text-anchor="end" x="797.5" y="-120.1" font-family="Times New Roman,serif" font-size="8.00">0 (0.0%)</text>
<text text-anchor="end" x="797.5" y="-111.1" font-family="Times New Roman,serif" font-size="8.00">of 1 (5.6%)</text>
</g>
<!-- N26&#45;&gt;N29 -->
<g id="edge23" class="edge"><title>N26&#45;&gt;N29</title>
<path fill="none" stroke="black" d="M759,-200.195C759,-186.293 759,-166.279 759,-150.114"/>
<polygon fill="black" stroke="black" points="762.5,-149.66 759,-139.66 755.5,-149.66 762.5,-149.66"/>
<text text-anchor="middle" x="762.5" y="-162.3" font-family="Times New Roman,serif" font-size="14.00">1</text>
</g>
<!-- N27 -->
<g id="node28" class="node"><title>N27</title>
<polygon fill="none" stroke="black" points="874,-52 644,-52 644,-0 874,-0 874,-52"/>
<text text-anchor="middle" x="759" y="-32.16" font-family="Times New Roman,serif" font-size="19.80">strconv.(*extFloat).frexp10</text>
<text text-anchor="end" x="866" y="-10.16" font-family="Times New Roman,serif" font-size="19.80">1 (5.6%)</text>
</g>
<!-- N29&#45;&gt;N27 -->
<g id="edge28" class="edge"><title>N29&#45;&gt;N27</title>
<path fill="none" stroke="black" d="M759,-104.195C759,-92.5513 759,-76.6206 759,-62.2543"/>
<polygon fill="black" stroke="black" points="762.5,-62.1536 759,-52.1536 755.5,-62.1536 762.5,-62.1536"/>
<text text-anchor="middle" x="762.5" y="-74.3" font-family="Times New Roman,serif" font-size="14.00">1</text>
</g>
</g>
</g></svg>
